<svg width="26" height="10" viewBox="0 0 26 10" fill="none" xmlns="http://www.w3.org/2000/svg">
<path d="M20.4286 0C17.5268 0 14.3929 2.52251 13 3.78584C11.6071 2.52251 8.47321 0 5.57144 0C2.08281 0 0 1.86919 0 5C0 8.13081 2.08281 10 5.57144 10C8.47321 10 11.6071 7.47749 13 6.21416C14.3929 7.47749 17.5268 10 20.4286 10C23.9172 10 26 8.13081 26 5C26 1.86919 23.9172 0 20.4286 0ZM5.57138 8.33335C3.10695 8.33335 1.85707 7.21167 1.85707 5C1.85707 2.78833 3.10695 1.66665 5.57138 1.66665C7.61426 1.66665 10.3257 3.73247 11.726 5C10.3285 6.26919 7.62258 8.33335 5.57138 8.33335ZM20.4286 8.33335C18.3857 8.33335 15.6743 6.26753 14.274 5C15.6668 3.73169 18.3774 1.66665 20.4286 1.66665C22.893 1.66665 24.1429 2.78833 24.1429 5C24.1429 7.21167 22.893 8.33335 20.4286 8.33335Z" fill="#902EC5"/>
</svg>
